# xmcd
#
# Track frame offsets:
#	150
#	22972
#	40220
#	54415
#	64265
#	84430
#	95547
#	108410
#	125582
#	138295
#	152367
#	170642
#	184192
#	204417
#	216457
#	226645
#	240887
#	256417
#
# Disc length: 3612 seconds
#
# Revision: 1
# Processed by: cddbd v1.5PL3 Copyright (c) Steve Scherf et al.
# Submitted via: audiograbber 1.82.01
#
DISCID=eb0e1a12
DTITLE=Various Artist - Discovery Cafe Presents A Sugar Hill Records Showcase
DYEAR=1998
DGENRE=Americana
TTITLE0=The Road Goes on Forever - Robert Earl Keen
TTITLE1=Beautiful Lies - Sweethearts of the Rodeo
TTITLE2=Hey Joe - Jerry Douglas
TTITLE3=She Ain't Rose - Leon Redbone
TTITLE4=Lathe Crick - Bad Livers
TTITLE5=Get In Line Brother - Marty Stuart
TTITLE6=Blue Train - Nashville Bluegrass Band
TTITLE7=Along the Berdigris - Tom Paxton
TTITLE8=Close Up the Honky Tonks - Chris Hillman and Herb Petersen
TTITLE9=Breakin' New Ground - The Seldom Scene
TTITLE10=Homegrown Tomatoes - Guy Clark
TTITLE11=Sweet Temptation - Ricky Skaggs
TTITLE12=Trail of Tears - Peter Rowan and the Nashville Bluegrass Band
TTITLE13=If I Needed You - Townes Van Zandt
TTITLE14=The Gold Rush - Tony Rice
TTITLE15=Colleen Malone - Hot Rize
TTITLE16=Walking After Midnight - Doc Watson
TTITLE17=Mollie and Tenbrooks - Alan O'Bryant and Friends
EXTD=
EXTT0=
EXTT1=
EXTT2=
EXTT3=
EXTT4=
EXTT5=
EXTT6=
EXTT7=
EXTT8=
EXTT9=
EXTT10=
EXTT11=
EXTT12=
EXTT13=
EXTT14=
EXTT15=
EXTT16=
EXTT17=
PLAYORDER=
